<?xml version="1.0" standalone="no"?><!DOCTYPE svg PUBLIC "-//W3C//DTD SVG 1.1//EN" "http://www.w3.org/Graphics/SVG/1.1/DTD/svg11.dtd"><svg t="1760033417044" class="icon" viewBox="0 0 1024 1024" version="1.1" xmlns="http://www.w3.org/2000/svg" p-id="1552" xmlns:xlink="http://www.w3.org/1999/xlink" width="200" height="200"><path d="M512 512m-512 0a512 512 0 1 0 1024 0 512 512 0 1 0-1024 0Z" fill="#D97757" p-id="1553"></path><path d="M278.698667 638.592l151.04-84.736 2.56-7.381333-2.56-4.053334H422.4l-25.258667-1.578666-86.314666-2.304-74.88-3.114667-72.533334-3.882667-18.261333-3.882666L128 505.088l1.749333-11.264 15.36-10.282667 21.973334 1.92 48.64 3.328 72.874666 5.034667 52.906667 3.114667 78.336 8.149333h12.458667l1.706666-5.034667-4.266666-3.114666-3.285334-3.114667-75.434666-51.072L269.354667 388.693333 226.56 357.632l-23.125333-15.744-11.648-14.762667-5.077334-32.256 20.992-23.082666 28.202667 1.92 7.210667 1.962666 28.586666 21.930667 61.013334 47.232 79.744 58.666667 11.648 9.728 4.693333-3.328 0.554667-2.346667-5.248-8.704-43.349334-78.293333L334.506667 240.896l-20.608-33.066667-5.418667-19.797333a95.018667 95.018667 0 0 1-3.328-23.296l23.893333-32.426667 13.226667-4.309333 31.914667 4.266667 13.44 11.648 19.797333 45.269333 32.085333 71.296 49.792 96.981333 14.592 28.757334 7.765334 26.581333 2.901333 8.192h5.077333v-4.693333l4.053334-54.613334 7.594666-66.986666 7.381334-86.272 2.56-24.277334 12.032-29.141333 23.893333-15.744 18.688 8.96 15.36 21.930667-2.133333 14.208-9.130667 59.221333-17.92 92.885333-11.648 62.165334h6.826667l7.765333-7.765334 31.488-41.813333 52.906667-66.005333 23.296-26.24 27.221333-28.928 17.493333-13.824h33.066667l24.32 36.138666-10.88 37.290667-34.048 43.136-28.16 36.522667-40.448 54.4-25.301333 43.52 2.346666 3.498666 6.016-0.554666 91.392-19.456 49.365334-8.96 58.922666-10.069334 26.624 12.416 2.944 12.629334-10.496 25.856-63.018666 15.530666-73.856 14.762667-110.08 26.026667-1.365334 0.981333 1.578667 1.962667 49.578667 4.693333 21.205333 1.109333h51.882667l96.64 7.210667 25.301333 16.725333 15.146667 20.394667-2.56 15.530667-38.826667 19.797333-52.522667-12.416-122.453333-29.141333-42.026667-10.496h-5.845333v3.498666l34.986667 34.176 64.170666 57.898667 80.298667 74.624 4.096 18.474667-10.325333 14.549333-10.88-1.536-70.570667-53.034667-27.221333-23.893333-61.653334-51.882667h-4.053333v5.418667l14.165333 20.778667 75.093334 112.682666 3.84 34.56-5.418667 11.306667-19.456 6.826667-21.376-3.925334-43.946667-61.568-45.312-69.376-36.522666-62.165333-4.48 2.56-21.589334 232.106667-10.112 11.904-23.338666 8.917333-19.456-14.762667-10.282667-23.893333 10.282667-47.232 12.458666-61.568 10.112-48.981333 9.130667-60.8 5.461333-20.181334-0.426666-1.365333-4.437334 0.554667-45.866666 62.976-69.802667 94.208-55.253333 59.050666-13.226667 5.248-22.912-11.818666 2.133333-21.205334 12.8-18.816 76.458667-97.152 46.08-60.245333 29.738667-34.773333-0.213334-5.034667h-1.706666L260.181333 721.92l-36.181333 4.693333-15.530667-14.592 1.92-23.893333 7.381334-7.765333 61.056-41.984-0.170667 0.213333z" fill="#FFFFFF" p-id="1554"></path></svg>