<?xml version="1.0" standalone="no"?><!DOCTYPE svg PUBLIC "-//W3C//DTD SVG 1.1//EN" "http://www.w3.org/Graphics/SVG/1.1/DTD/svg11.dtd"><svg t="1752810765220" class="icon" viewBox="0 0 1024 1024" version="1.1" xmlns="http://www.w3.org/2000/svg" p-id="1463" xmlns:xlink="http://www.w3.org/1999/xlink" width="200" height="200"><path d="M389.12 102.4L13.653333 153.6c-6.826667 0-13.653333 10.24-13.653333 17.066667v307.2c0 10.24 6.826667 17.066667 17.066667 17.066666h375.466666c10.24 0 17.066667-6.826667 17.066667-17.066666V119.466667c0-3.413333-3.413333-10.24-6.826667-13.653334-3.413333-3.413333-6.826667-3.413333-13.653333-3.413333zM1017.173333 20.48c-3.413333-3.413333-10.24-3.413333-13.653333-3.413333l-512 68.266666c-6.826667 0-13.653333 6.826667-13.653333 17.066667v375.466667c0 10.24 6.826667 17.066667 17.066666 17.066666h512c10.24 0 17.066667-6.826667 17.066667-17.066666V34.133333c0-3.413333-3.413333-10.24-6.826667-13.653333zM392.533333 529.066667H17.066667c-10.24 0-17.066667 6.826667-17.066667 17.066666v307.2c0 10.24 6.826667 17.066667 13.653333 17.066667l375.466667 51.2h3.413333c3.413333 0 6.826667 0 10.24-3.413333s6.826667-6.826667 6.826667-13.653334V546.133333c0-10.24-6.826667-17.066667-17.066667-17.066666zM1006.933333 529.066667h-512c-10.24 0-17.066667 6.826667-17.066666 17.066666v375.466667c0 10.24 6.826667 17.066667 13.653333 17.066667l512 68.266666h3.413333c3.413333 0 6.826667 0 10.24-3.413333 3.413333-3.413333 6.826667-6.826667 6.826667-13.653333V546.133333c0-10.24-6.826667-17.066667-17.066667-17.066666z" fill="" p-id="1464"></path></svg>